<?xml version="1.0" standalone="no"?>
<!DOCTYPE svg PUBLIC "-//W3C//DTD SVG 20010904//EN"
 "http://www.w3.org/TR/2001/REC-SVG-20010904/DTD/svg10.dtd">
<svg version="1.0" xmlns="http://www.w3.org/2000/svg"
 width="421.000000pt" height="421.000000pt" viewBox="0 0 421.000000 421.000000"
 preserveAspectRatio="xMidYMid meet">

<g transform="translate(0.000000,421.000000) scale(0.100000,-0.100000)"
fill="#000000" stroke="none">
<path d="M1956 3599 c-137 -19 -272 -50 -331 -78 -79 -37 -123 -81 -164 -166
-18 -38 -46 -83 -61 -100 -39 -42 -80 -117 -99 -180 -10 -30 -27 -66 -39 -80
-12 -14 -22 -29 -22 -34 0 -5 -3 -11 -7 -13 -8 -3 -44 -73 -50 -98 -3 -8 -7
-51 -10 -95 -3 -48 -11 -90 -21 -105 -36 -56 -64 -122 -70 -167 l-7 -48 -60
-6 c-102 -10 -178 -56 -214 -128 -14 -28 -16 -44 -8 -71 12 -45 11 -66 -1
-115 -18 -66 4 -117 54 -129 13 -4 33 -2 44 4 19 10 20 9 14 -32 -3 -24 -8
-49 -10 -56 -11 -35 57 -92 109 -92 17 0 27 -5 27 -14 0 -16 56 -76 71 -76 5
0 9 8 9 18 0 20 34 55 63 65 28 10 31 -18 8 -64 -15 -29 -20 -51 -16 -70 8
-35 12 -35 42 -7 21 20 25 20 39 7 21 -22 4 -63 -34 -78 -25 -11 -35 -10 -61
3 -30 16 -30 16 -22 -6 4 -13 23 -33 41 -45 34 -24 65 -23 107 3 20 13 22 11
34 -24 46 -142 175 -317 334 -455 39 -33 76 -73 84 -89 19 -39 163 -170 222
-202 102 -56 217 -54 317 7 30 17 86 63 126 100 39 37 100 88 136 112 191 130
306 246 369 371 44 87 51 96 65 85 17 -13 66 -20 72 -10 3 5 -1 9 -9 9 -15 0
-29 23 -32 53 -1 9 2 17 7 17 5 0 6 5 3 10 -11 17 8 11 31 -11 12 -12 27 -18
33 -14 14 8 14 82 1 90 -16 10 -12 65 4 65 8 0 36 -18 62 -40 27 -23 59 -43
72 -47 53 -13 92 41 107 150 5 39 10 47 27 47 18 0 20 4 15 35 -3 20 -13 50
-21 67 -20 39 -20 41 3 28 91 -48 142 54 89 177 -18 40 -35 59 -76 87 -30 20
-69 38 -88 42 -42 8 -51 20 -25 33 46 25 52 115 14 204 -23 55 -26 76 -27 182
-1 113 -3 124 -32 185 -18 36 -35 88 -39 115 -8 59 -47 162 -86 225 -15 25
-30 61 -34 80 -20 95 -82 168 -188 223 -106 54 -314 117 -437 131 -166 20
-370 27 -454 15z m-343 -1398 c-21 -30 -24 -45 -21 -88 5 -62 -1 -65 -69 -32
-30 14 -43 27 -43 41 0 36 100 114 146 115 6 0 0 -16 -13 -36z m96 0 c13 -24
-9 -57 -33 -48 -23 9 -31 34 -16 52 17 20 37 19 49 -4z m229 -104 c29 -59 28
-85 -4 -97 -31 -12 -74 -13 -93 -1 -12 8 -9 15 12 41 22 25 27 42 27 82 0 49
1 50 18 35 10 -9 28 -36 40 -60z m626 38 c9 -24 -4 -45 -29 -45 -29 0 -38 13
-30 40 8 24 50 27 59 5z m187 0 c34 -18 89 -89 89 -115 0 -20 -64 -50 -106
-50 -20 0 -23 3 -16 18 20 36 23 96 7 126 -23 43 -20 45 26 21z m-302 -53 c-9
-40 -4 -61 29 -124 2 -5 -13 -8 -33 -8 -44 0 -95 25 -95 46 0 30 93 145 106
131 2 -1 -1 -22 -7 -45z m-631 -67 c-3 -3 -13 -2 -22 1 -14 5 -15 9 -4 15 13
8 36 -6 26 -16z m220 -601 c4 -4 -8 -4 -27 0 -18 3 -43 6 -55 6 -15 0 -17 3
-7 9 13 9 77 -2 89 -15z m97 -197 c49 1 49 1 16 -9 -38 -11 -97 -3 -107 13 -4
8 1 8 17 3 13 -5 47 -8 74 -7z"/>
</g>
</svg>
